<svg width="86" height="83" viewBox="0 0 86 83" fill="none" xmlns="http://www.w3.org/2000/svg">
<path d="M43 0.273499C19.2638 0.273499 0 18.5939 0 41.1679C0 63.7417 19.2638 82.0622 43 82.0622C66.7362 82.0622 86 63.7417 86 41.1679C86 18.5939 66.7362 0.273499 43 0.273499ZM43 2.17556C65.6554 2.17556 84 19.6219 84 41.1679C84 62.7138 65.6554 80.1602 43 80.1602C20.3446 80.1602 2 62.7138 2 41.1679C2 19.6219 20.3446 2.17556 43 2.17556ZM29.3437 22.1472C29.1121 22.1893 28.9036 22.3077 28.755 22.4818C28.6063 22.6558 28.527 22.8741 28.5312 23.0983V59.2375C28.5296 59.4051 28.5747 59.5702 28.6618 59.7159C28.749 59.8617 28.8751 59.9829 29.0273 60.0674C29.1796 60.1519 29.3527 60.1966 29.529 60.197C29.7052 60.1974 29.8785 60.1534 30.0312 60.0696L64.0312 42C64.2047 41.9069 64.3449 41.7666 64.434 41.5972C64.5231 41.4277 64.5569 41.2368 64.5312 41.049C64.5124 40.9012 64.4573 40.7596 64.3705 40.6358C64.2836 40.5119 64.1674 40.4091 64.0312 40.3357L30.0312 22.2661C29.8245 22.1492 29.5804 22.107 29.3437 22.1472ZM30.5312 24.7031L61.5 41.1679L30.5312 57.6326V24.7031Z" fill="white"/>
</svg>
